{
    "asset": {
        "version": "2.0",
        "generator": "Open Asset Import Library (assimp v5.2.cf7d3637)"
    },
    "extensionsUsed": [
        "KHR_materials_unlit",
        "KHR_materials_volume",
        "FB_ngon_encoding"
    ],
    "accessors": [
        {
            "bufferView": 0,
            "byteOffset": 0,
            "componentType": 5126,
            "count": 3000,
            "type": "VEC3",
            "max": [
                1.1979478597640992,
                1.3842880725860596,
                0.32539790868759158
            ],
            "min": [
                -1.1979477405548096,
                0.08972835540771485,
                -0.12401267886161804
            ]
        },
        {
            "bufferView": 1,
            "byteOffset": 0,
            "componentType": 5126,
            "count": 3000,
            "type": "VEC3",
            "max": [
                0.708597719669342,
                0.7224858403205872,
                1.0
            ],
            "min": [
                -0.708597719669342,
                -0.7071068286895752,
                -1.0
            ]
        },
        {
            "bufferView": 2,
            "byteOffset": 0,
            "componentType": 5126,
            "count": 3000,
            "type": "VEC2",
            "max": [
                0.76449054479599,
                1.0
            ],
            "min": [
                0.0,
                0.37164098024368288
            ]
        },
        {
            "bufferView": 3,
            "byteOffset": 0,
            "componentType": 5125,
            "count": 3000,
            "type": "SCALAR",
            "max": [
                2999
            ],
            "min": [
                0
            ]
        },
        {
            "bufferView": 4,
            "byteOffset": 0,
            "componentType": 5126,
            "count": 21648,
            "type": "VEC3",
            "max": [
                1.9581007957458497,
                1.737287998199463,
                1.2583339214324952
            ],
            "min": [
                -1.9581009149551392,
                -0.2632715702056885,
                -0.15892180800437928
            ]
        },
        {
            "bufferView": 5,
            "byteOffset": 0,
            "componentType": 5126,
            "count": 21648,
            "type": "VEC3",
            "max": [
                1.0,
                1.0,
                0.9929249882698059
            ],
            "min": [
                -1.0,
                -1.0,
                -0.9979760050773621
            ]
        },
        {
            "bufferView": 6,
            "byteOffset": 0,
            "componentType": 5126,
            "count": 21648,
            "type": "VEC2",
            "max": [
                0.6341887712478638,
                1.0
            ],
            "min": [
                0.0,
                0.3913843631744385
            ]
        },
        {
            "bufferView": 7,
            "byteOffset": 0,
            "componentType": 5125,
            "count": 21648,
            "type": "SCALAR",
            "max": [
                21647
            ],
            "min": [
                0
            ]
        },
        {
            "bufferView": 8,
            "byteOffset": 0,
            "componentType": 5126,
            "count": 2952,
            "type": "VEC3",
            "max": [
                0.6642947196960449,
                1.1269032955169678,
                0.34180569648742678
            ],
            "min": [
                -0.7803128957748413,
                0.19385743141174317,
                0.3228708505630493
            ]
        },
        {
            "bufferView": 9,
            "byteOffset": 0,
            "componentType": 5126,
            "count": 2952,
            "type": "VEC3",
            "max": [
                0.7135276198387146,
                0.7134776711463928,
                1.0
            ],
            "min": [
                -0.7135276198387146,
                -0.7134776711463928,
                0.7006076574325562
            ]
        },
        {
            "bufferView": 10,
            "byteOffset": 0,
            "componentType": 5126,
            "count": 2952,
            "type": "VEC2",
            "max": [
                1.0000001192092896,
                1.0
            ],
            "min": [
                0.0,
                0.0
            ]
        },
        {
            "bufferView": 11,
            "byteOffset": 0,
            "componentType": 5125,
            "count": 2952,
            "type": "SCALAR",
            "max": [
                2951
            ],
            "min": [
                0
            ]
        },
        {
            "bufferView": 12,
            "byteOffset": 0,
            "componentType": 5126,
            "count": 3492,
            "type": "VEC3",
            "max": [
                1.7699615955352784,
                2.687500238418579,
                0.6405747532844544
            ],
            "min": [
                -1.683822751045227,
                1.1968269348144532,
                -0.5049903988838196
            ]
        },
        {
            "bufferView": 13,
            "byteOffset": 0,
            "componentType": 5126,
            "count": 3492,
            "type": "VEC3",
            "max": [
                0.9969537258148193,
                1.0,
                0.9999953508377075
            ],
            "min": [
                -1.0,
                -0.9904903173446655,
                -0.9999955892562866
            ]
        },
        {
            "bufferView": 14,
            "byteOffset": 0,
            "componentType": 5126,
            "count": 3492,
            "type": "VEC2",
            "max": [
                0.0,
                1.0
            ],
            "min": [
                0.0,
                1.0
            ]
        },
        {
            "bufferView": 15,
            "byteOffset": 0,
            "componentType": 5125,
            "count": 3492,
            "type": "SCALAR",
            "max": [
                3491
            ],
            "min": [
                0
            ]
        },
        {
            "bufferView": 16,
            "byteOffset": 0,
            "componentType": 5126,
            "count": 15984,
            "type": "VEC3",
            "max": [
                1.2418160438537598,
                2.5454208850860597,
                0.562830924987793
            ],
            "min": [
                -1.5036413669586182,
                1.9209010601043702,
                -0.4270981550216675
            ]
        },
        {
            "bufferView": 17,
            "byteOffset": 0,
            "componentType": 5126,
            "count": 15984,
            "type": "VEC3",
            "max": [
                0.9975305199623108,
                0.9994540810585022,
                0.9991205334663391
            ],
            "min": [
                -0.994830846786499,
                -0.9991456866264343,
                -0.9991205334663391
            ]
        },
        {
            "bufferView": 18,
            "byteOffset": 0,
            "componentType": 5126,
            "count": 15984,
            "type": "VEC2",
            "max": [
                0.0,
                1.0
            ],
            "min": [
                0.0,
                1.0
            ]
        },
        {
            "bufferView": 19,
            "byteOffset": 0,
            "componentType": 5125,
            "count": 15984,
            "type": "SCALAR",
            "max": [
                15983
            ],
            "min": [
                0
            ]
        },
        {
            "bufferView": 20,
            "byteOffset": 0,
            "componentType": 5126,
            "count": 1008,
            "type": "VEC3",
            "max": [
                1.9207843542099,
                3.04624342918396,
                0.15048663318157197
            ],
            "min": [
                -1.8942490816116334,
                1.765336275100708,
                -0.14751353859901429
            ]
        },
        {
            "bufferView": 21,
            "byteOffset": 0,
            "componentType": 5126,
            "count": 1008,
            "type": "VEC3",
            "max": [
                0.9696226119995117,
                0.9999964237213135,
                0.999938428401947
            ],
            "min": [
                -0.9700011610984802,
                -0.9999964237213135,
                -0.999938428401947
            ]
        },
        {
            "bufferView": 22,
            "byteOffset": 0,
            "componentType": 5126,
            "count": 1008,
            "type": "VEC2",
            "max": [
                1.0,
                1.0
            ],
            "min": [
                0.0,
                0.0
            ]
        },
        {
            "bufferView": 23,
            "byteOffset": 0,
            "componentType": 5125,
            "count": 1008,
            "type": "SCALAR",
            "max": [
                1007
            ],
            "min": [
                0
            ]
        },
        {
            "bufferView": 24,
            "byteOffset": 0,
            "componentType": 5126,
            "count": 45408,
            "type": "VEC3",
            "max": [
                2.0038962364196779,
                3.108243227005005,
                0.5012189745903015
            ],
            "min": [
                -2.0038962364196779,
                0.8994803428649902,
                -0.5012200474739075
            ]
        },
        {
            "bufferView": 25,
            "byteOffset": 0,
            "componentType": 5126,
            "count": 45408,
            "type": "VEC3",
            "max": [
                1.0,
                0.9999988079071045,
                0.999998927116394
            ],
            "min": [
                -1.0,
                -0.9999988079071045,
                -0.999998927116394
            ]
        },
        {
            "bufferView": 26,
            "byteOffset": 0,
            "componentType": 5126,
            "count": 45408,
            "type": "VEC2",
            "max": [
                1.0,
                1.0
            ],
            "min": [
                0.0,
                0.0
            ]
        },
        {
            "bufferView": 27,
            "byteOffset": 0,
            "componentType": 5125,
            "count": 45408,
            "type": "SCALAR",
            "max": [
                45407
            ],
            "min": [
                0
            ]
        },
        {
            "bufferView": 28,
            "byteOffset": 0,
            "componentType": 5126,
            "count": 31488,
            "type": "VEC3",
            "max": [
                1.6975749731063843,
                1.9272983074188233,
                0.43143048882484438
            ],
            "min": [
                -1.6975750923156739,
                0.969268798828125,
                -0.43143150210380556
            ]
        },
        {
            "bufferView": 29,
            "byteOffset": 0,
            "componentType": 5126,
            "count": 31488,
            "type": "VEC3",
            "max": [
                1.0,
                0.9999992847442627,
                0.9999994039535523
            ],
            "min": [
                -1.0,
                -0.9999992847442627,
                -0.9999994039535523
            ]
        },
        {
            "bufferView": 30,
            "byteOffset": 0,
            "componentType": 5126,
            "count": 31488,
            "type": "VEC2",
            "max": [
                0.4341883957386017,
                0.9460912346839905
            ],
            "min": [
                0.06873348355293274,
                0.5898246765136719
            ]
        },
        {
            "bufferView": 31,
            "byteOffset": 0,
            "componentType": 5125,
            "count": 31488,
            "type": "SCALAR",
            "max": [
                31487
            ],
            "min": [
                0
            ]
        },
        {
            "bufferView": 32,
            "byteOffset": 0,
            "componentType": 5126,
            "count": 13056,
            "type": "VEC3",
            "max": [
                1.9402295351028443,
                1.8398151397705079,
                0.37493276596069338
            ],
            "min": [
                -1.9402295351028443,
                1.0270063877105713,
                -0.37493380904197695
            ]
        },
        {
            "bufferView": 33,
            "byteOffset": 0,
            "componentType": 5126,
            "count": 13056,
            "type": "VEC3",
            "max": [
                1.0,
                0.9997238516807556,
                0.999764621257782
            ],
            "min": [
                -1.0,
                -0.9997238516807556,
                -0.999764621257782
            ]
        },
        {
            "bufferView": 34,
            "byteOffset": 0,
            "componentType": 5126,
            "count": 13056,
            "type": "VEC2",
            "max": [
                0.42016977071762087,
                0.41609102487564089
            ],
            "min": [
                0.11228151619434357,
                0.11128157377243042
            ]
        },
        {
            "bufferView": 35,
            "byteOffset": 0,
            "componentType": 5125,
            "count": 13056,
            "type": "SCALAR",
            "max": [
                13055
            ],
            "min": [
                0
            ]
        }
    ],
    "buffers": [
        {
            "byteLength": 4969296,
            "uri": "result.bin"
        }
    ],
    "bufferViews": [
        {
            "buffer": 0,
            "byteOffset": 0,
            "byteLength": 36000,
            "target": 34962
        },
        {
            "buffer": 0,
            "byteOffset": 36000,
            "byteLength": 36000,
            "target": 34962
        },
        {
            "buffer": 0,
            "byteOffset": 72000,
            "byteLength": 24000,
            "target": 34962
        },
        {
            "buffer": 0,
            "byteOffset": 96000,
            "byteLength": 12000,
            "target": 34963
        },
        {
            "buffer": 0,
            "byteOffset": 108000,
            "byteLength": 259776,
            "target": 34962
        },
        {
            "buffer": 0,
            "byteOffset": 367776,
            "byteLength": 259776,
            "target": 34962
        },
        {
            "buffer": 0,
            "byteOffset": 627552,
            "byteLength": 173184,
            "target": 34962
        },
        {
            "buffer": 0,
            "byteOffset": 800736,
            "byteLength": 86592,
            "target": 34963
        },
        {
            "buffer": 0,
            "byteOffset": 887328,
            "byteLength": 35424,
            "target": 34962
        },
        {
            "buffer": 0,
            "byteOffset": 922752,
            "byteLength": 35424,
            "target": 34962
        },
        {
            "buffer": 0,
            "byteOffset": 958176,
            "byteLength": 23616,
            "target": 34962
        },
        {
            "buffer": 0,
            "byteOffset": 981792,
            "byteLength": 11808,
            "target": 34963
        },
        {
            "buffer": 0,
            "byteOffset": 993600,
            "byteLength": 41904,
            "target": 34962
        },
        {
            "buffer": 0,
            "byteOffset": 1035504,
            "byteLength": 41904,
            "target": 34962
        },
        {
            "buffer": 0,
            "byteOffset": 1077408,
            "byteLength": 27936,
            "target": 34962
        },
        {
            "buffer": 0,
            "byteOffset": 1105344,
            "byteLength": 13968,
            "target": 34963
        },
        {
            "buffer": 0,
            "byteOffset": 1119312,
            "byteLength": 191808,
            "target": 34962
        },
        {
            "buffer": 0,
            "byteOffset": 1311120,
            "byteLength": 191808,
            "target": 34962
        },
        {
            "buffer": 0,
            "byteOffset": 1502928,
            "byteLength": 127872,
            "target": 34962
        },
        {
            "buffer": 0,
            "byteOffset": 1630800,
            "byteLength": 63936,
            "target": 34963
        },
        {
            "buffer": 0,
            "byteOffset": 1694736,
            "byteLength": 12096,
            "target": 34962
        },
        {
            "buffer": 0,
            "byteOffset": 1706832,
            "byteLength": 12096,
            "target": 34962
        },
        {
            "buffer": 0,
            "byteOffset": 1718928,
            "byteLength": 8064,
            "target": 34962
        },
        {
            "buffer": 0,
            "byteOffset": 1726992,
            "byteLength": 4032,
            "target": 34963
        },
        {
            "buffer": 0,
            "byteOffset": 1731024,
            "byteLength": 544896,
            "target": 34962
        },
        {
            "buffer": 0,
            "byteOffset": 2275920,
            "byteLength": 544896,
            "target": 34962
        },
        {
            "buffer": 0,
            "byteOffset": 2820816,
            "byteLength": 363264,
            "target": 34962
        },
        {
            "buffer": 0,
            "byteOffset": 3184080,
            "byteLength": 181632,
            "target": 34963
        },
        {
            "buffer": 0,
            "byteOffset": 3365712,
            "byteLength": 377856,
            "target": 34962
        },
        {
            "buffer": 0,
            "byteOffset": 3743568,
            "byteLength": 377856,
            "target": 34962
        },
        {
            "buffer": 0,
            "byteOffset": 4121424,
            "byteLength": 251904,
            "target": 34962
        },
        {
            "buffer": 0,
            "byteOffset": 4373328,
            "byteLength": 125952,
            "target": 34963
        },
        {
            "buffer": 0,
            "byteOffset": 4499280,
            "byteLength": 156672,
            "target": 34962
        },
        {
            "buffer": 0,
            "byteOffset": 4655952,
            "byteLength": 156672,
            "target": 34962
        },
        {
            "buffer": 0,
            "byteOffset": 4812624,
            "byteLength": 104448,
            "target": 34962
        },
        {
            "buffer": 0,
            "byteOffset": 4917072,
            "byteLength": 52224,
            "target": 34963
        }
    ],
    "materials": [
        {
            "name": "Cara",
            "pbrMetallicRoughness": {
                "metallicFactor": 0.0,
                "roughnessFactor": 0.8999999761581421
            },
            "doubleSided": true,
            "extensions": {
                "KHR_materials_unlit": {}
            }
        },
        {
            "name": "Outline",
            "pbrMetallicRoughness": {
                "metallicFactor": 0.0,
                "roughnessFactor": 0.8999999761581421
            },
            "doubleSided": true,
            "extensions": {
                "KHR_materials_unlit": {}
            }
        },
        {
            "name": "Black - No shine",
            "doubleSided": true
        },
        {
            "name": "Cabello",
            "doubleSided": true
        },
        {
            "name": "Brillo",
            "pbrMetallicRoughness": {
                "metallicFactor": 0.0,
                "roughnessFactor": 0.8999999761581421
            },
            "doubleSided": true,
            "extensions": {
                "KHR_materials_unlit": {}
            }
        },
        {
            "name": "Material",
            "pbrMetallicRoughness": {
                "metallicFactor": 0.0,
                "roughnessFactor": 0.8999999761581421
            },
            "doubleSided": true,
            "extensions": {
                "KHR_materials_unlit": {}
            }
        },
        {
            "name": "Outline.001",
            "pbrMetallicRoughness": {
                "metallicFactor": 0.0,
                "roughnessFactor": 0.8999999761581421
            },
            "alphaMode": "MASK",
            "extensions": {
                "KHR_materials_unlit": {}
            }
        },
        {
            "name": "1.001",
            "pbrMetallicRoughness": {
                "metallicFactor": 0.0,
                "roughnessFactor": 0.8999999761581421
            },
            "doubleSided": true,
            "extensions": {
                "KHR_materials_unlit": {}
            }
        },
        {
            "name": "2.001",
            "pbrMetallicRoughness": {
                "metallicFactor": 0.0,
                "roughnessFactor": 0.8999999761581421
            },
            "doubleSided": true,
            "extensions": {
                "KHR_materials_unlit": {}
            }
        },
        {
            "name": "material"
        }
    ],
    "meshes": [
        {
            "name": "Plane.014-0",
            "primitives": [
                {
                    "mode": 4,
                    "material": 0,
                    "indices": 3,
                    "attributes": {
                        "POSITION": 0,
                        "NORMAL": 1,
                        "TEXCOORD_0": 2
                    }
                },
                {
                    "mode": 4,
                    "material": 1,
                    "indices": 7,
                    "attributes": {
                        "POSITION": 4,
                        "NORMAL": 5,
                        "TEXCOORD_0": 6
                    }
                },
                {
                    "mode": 4,
                    "material": 2,
                    "indices": 11,
                    "attributes": {
                        "POSITION": 8,
                        "NORMAL": 9,
                        "TEXCOORD_0": 10
                    }
                },
                {
                    "mode": 4,
                    "material": 3,
                    "indices": 15,
                    "attributes": {
                        "POSITION": 12,
                        "NORMAL": 13,
                        "TEXCOORD_0": 14
                    }
                },
                {
                    "mode": 4,
                    "material": 4,
                    "indices": 19,
                    "attributes": {
                        "POSITION": 16,
                        "NORMAL": 17,
                        "TEXCOORD_0": 18
                    }
                },
                {
                    "mode": 4,
                    "material": 5,
                    "indices": 23,
                    "attributes": {
                        "POSITION": 20,
                        "NORMAL": 21,
                        "TEXCOORD_0": 22
                    }
                },
                {
                    "mode": 4,
                    "material": 6,
                    "indices": 27,
                    "attributes": {
                        "POSITION": 24,
                        "NORMAL": 25,
                        "TEXCOORD_0": 26
                    }
                },
                {
                    "mode": 4,
                    "material": 7,
                    "indices": 31,
                    "attributes": {
                        "POSITION": 28,
                        "NORMAL": 29,
                        "TEXCOORD_0": 30
                    }
                },
                {
                    "mode": 4,
                    "material": 8,
                    "indices": 35,
                    "attributes": {
                        "POSITION": 32,
                        "NORMAL": 33,
                        "TEXCOORD_0": 34
                    }
                }
            ]
        }
    ],
    "nodes": [
        {
            "name": "Cuerpecito.001",
            "mesh": 0
        }
    ],
    "scenes": [
        {
            "nodes": [
                0
            ]
        }
    ],
    "scene": 0
}